<svg width="21" height="36" viewBox="0 0 21 36" fill="none" xmlns="http://www.w3.org/2000/svg">
<g clip-path="url(#clip0_38_111)">
<path d="M21 20.7954L10.5 35.9835V27.4241L21 20.7954V20.7954ZM15.435 26.134L12.0643 28.2552V31.001L15.435 26.1341V26.134Z" fill="#5A9DED"/>
<path d="M0 20.7954L10.5 35.9835V27.4241L0 20.7954ZM5.565 26.134L8.93566 28.2552V31.001L5.565 26.1341V26.134Z" fill="#53D3E0"/>
<path d="M11.832 13.8516L18.7862 17.7247L19.0327 18.4783L18.2047 19.2011L11.832 15.6444V13.8516Z" fill="#D995D1"/>
<path d="M9.17263 13.8516L2.21843 17.7247L1.97192 18.4783L2.79995 19.2011L9.17263 15.6444V13.8516Z" fill="#A6E276"/>
<path d="M10.5 0.972656L21 18.9542L10.5 25.5665V0.972656ZM12.0507 6.74085V22.7954L18.9103 18.478L12.0507 6.74077V6.74085Z" fill="#FF9C92"/>
<path d="M10.5 0.972656L0 18.9542L10.5 25.5665V0.972656ZM8.94928 6.74085V22.7954L2.08966 18.4781L8.94928 6.74085V6.74085Z" fill="#FFE94D"/>
</g>
<defs>
<clipPath id="clip0_38_111">
<rect width="21" height="35.0273" fill="white" transform="translate(0 0.972656)"/>
</clipPath>
</defs>
</svg>
