<svg width="51" height="51" viewBox="0 0 51 51" fill="none" xmlns="http://www.w3.org/2000/svg">
<path d="M0 39.882V50.3048C0 50.4765 0.0682057 50.6412 0.189614 50.7626C0.311021 50.884 0.475686 50.9522 0.647383 50.9522H11.0735C11.1578 50.9531 11.2414 50.9369 11.3193 50.9046C11.3971 50.8724 11.4677 50.8247 11.5266 50.7645L22.4868 39.8107C22.6064 39.6901 22.6739 39.5274 22.6746 39.3576V28.925C22.6746 28.7533 22.6064 28.5886 22.485 28.4672C22.3636 28.3458 22.1989 28.2776 22.0272 28.2776H11.6108C11.441 28.2783 11.2782 28.3458 11.1576 28.4654L0.200687 39.4288C0.139111 39.4874 0.0896939 39.5576 0.0552591 39.6354C0.0208243 39.7131 0.00204825 39.7969 0 39.882Z" fill="url(#paint0_linear_8_210)"/>
<path d="M50.9521 39.9128V50.3514C50.9521 50.5234 50.8841 50.6883 50.763 50.8099C50.642 50.9315 50.4777 50.9998 50.3065 50.9998H39.9084C39.8244 51.0007 39.741 50.9845 39.6633 50.9522C39.5856 50.9199 39.5153 50.8721 39.4565 50.8118L28.5257 39.8414C28.4065 39.7206 28.3392 39.5577 28.3385 39.3876V28.9391C28.3385 28.7672 28.4065 28.6023 28.5276 28.4807C28.6487 28.3591 28.8129 28.2908 28.9841 28.2908H39.3725C39.5419 28.2915 39.7042 28.359 39.8245 28.4788L50.752 39.4589C50.8134 39.5176 50.8627 39.5879 50.897 39.6658C50.9314 39.7437 50.9501 39.8276 50.9521 39.9128Z" fill="url(#paint1_linear_8_210)"/>
<path d="M50.9521 10.9483V0.685106C50.9521 0.516039 50.8841 0.353905 50.763 0.234357C50.642 0.114808 50.4777 0.0476371 50.3065 0.0476371H39.9084C39.8244 0.0467504 39.741 0.0626727 39.6633 0.0944434C39.5856 0.126214 39.5153 0.173162 39.4565 0.232489L28.5257 11.0185C28.4065 11.1372 28.3392 11.2975 28.3385 11.4647V21.7375C28.3385 21.9066 28.4065 22.0687 28.5276 22.1883C28.6487 22.3078 28.8129 22.375 28.9841 22.375H39.3725C39.5419 22.3743 39.7042 22.3079 39.8245 22.1901L50.752 11.3946C50.8134 11.3368 50.8627 11.2677 50.897 11.1911C50.9314 11.1146 50.9501 11.0321 50.9521 10.9483Z" fill="url(#paint2_linear_8_210)"/>
<path d="M0 0.647383V11.0767C0.000715113 11.2466 0.0681414 11.4093 0.187742 11.5299L11.1447 22.4869C11.2653 22.6065 11.428 22.6739 11.5979 22.6746H22.0272C22.1989 22.6746 22.3636 22.6064 22.485 22.485C22.6064 22.3636 22.6746 22.1989 22.6746 22.0272V11.6011C22.6739 11.4313 22.6064 11.2685 22.4868 11.148L11.5266 0.187766C11.4061 0.0681661 11.2433 0.000715113 11.0735 0H0.647383C0.475686 0 0.311021 0.0682156 0.189614 0.189623C0.0682057 0.311031 0 0.475686 0 0.647383Z" fill="url(#paint3_linear_8_210)"/>
<defs>
<linearGradient id="paint0_linear_8_210" x1="1.52666" y1="49.5687" x2="28.5294" y2="24.9036" gradientUnits="userSpaceOnUse">
<stop stop-color="#F5698A"/>
<stop offset="1" stop-color="#24D35E"/>
</linearGradient>
<linearGradient id="paint1_linear_8_210" x1="51.8586" y1="50.9998" x2="28.2438" y2="28.3897" gradientUnits="userSpaceOnUse">
<stop stop-color="#2F51D6"/>
<stop offset="1" stop-color="#24D35E"/>
</linearGradient>
<linearGradient id="paint2_linear_8_210" x1="51.8586" y1="0.0476043" x2="28.6269" y2="22.6711" gradientUnits="userSpaceOnUse">
<stop stop-color="#091D6B"/>
<stop offset="1" stop-color="#25CBD6"/>
</linearGradient>
<linearGradient id="paint3_linear_8_210" x1="7.45724e-07" y1="-0.0476853" x2="22.7091" y2="22.6614" gradientUnits="userSpaceOnUse">
<stop stop-color="#FD9576"/>
<stop offset="1" stop-color="#735CCE"/>
</linearGradient>
</defs>
</svg>
